{
	"asset":{
		"generator":"Khronos glTF Blender I/O v5.2.39",
		"version":"2.0"
	},
	"scene":0,
	"scenes":[
		{
			"name":"Scene",
			"nodes":[
				1
			]
		}
	],
	"nodes":[
		{
			"mesh":0,
			"name":"WoodenTorch",
			"rotation":[
				-0.70710688829422,
				0,
				0,
				0.7071066498756409
			],
			"scale":[
				137.4103546142578,
				137.41033935546875,
				137.41033935546875
			]
		},
		{
			"children":[
				0
			],
			"name":"RootNode"
		}
	],
	"materials":[
		{
			"name":"DarkWood",
			"pbrMetallicRoughness":{
				"baseColorFactor":[
					0.11390679329633713,
					0.06979499012231827,
					0.035405322909355164,
					1
				],
				"metallicFactor":0.4000000059604645,
				"roughnessFactor":0.41508710384368896
			}
		},
		{
			"name":"LightGrey",
			"pbrMetallicRoughness":{
				"baseColorFactor":[
					0.3005959689617157,
					0.3005959689617157,
					0.3005959689617157,
					1
				],
				"metallicFactor":0.4000000059604645,
				"roughnessFactor":0.41508710384368896
			}
		},
		{
			"name":"Yellow",
			"pbrMetallicRoughness":{
				"baseColorFactor":[
					0.2190607339143753,
					0.14952312409877777,
					0.04352087900042534,
					1
				],
				"metallicFactor":0.4000000059604645,
				"roughnessFactor":0.41508710384368896
			}
		}
	],
	"meshes":[
		{
			"name":"WoodenTorch",
			"primitives":[
				{
					"attributes":{
						"POSITION":0,
						"NORMAL":1
					},
					"indices":2,
					"material":0
				},
				{
					"attributes":{
						"POSITION":3,
						"NORMAL":4
					},
					"indices":5,
					"material":1
				},
				{
					"attributes":{
						"POSITION":6,
						"NORMAL":7
					},
					"indices":8,
					"material":2
				}
			]
		}
	],
	"accessors":[
		{
			"bufferView":0,
			"componentType":5126,
			"count":184,
			"max":[
				0.0012311467435210943,
				0.0008743552607484162,
				0.013887952081859112
			],
			"min":[
				-0.0013225985458120704,
				-0.0008743551443330944,
				-0.004245712887495756
			],
			"type":"VEC3"
		},
		{
			"bufferView":1,
			"componentType":5126,
			"count":184,
			"type":"VEC3"
		},
		{
			"bufferView":2,
			"componentType":5123,
			"count":276,
			"type":"SCALAR"
		},
		{
			"bufferView":3,
			"componentType":5126,
			"count":326,
			"max":[
				0.0017022214597091079,
				0.001523998100310564,
				0.015335003845393658
			],
			"min":[
				-0.001625275588594377,
				-0.001523996819742024,
				0.009384065866470337
			],
			"type":"VEC3"
		},
		{
			"bufferView":4,
			"componentType":5126,
			"count":326,
			"type":"VEC3"
		},
		{
			"bufferView":5,
			"componentType":5123,
			"count":486,
			"type":"SCALAR"
		},
		{
			"bufferView":6,
			"componentType":5126,
			"count":390,
			"max":[
				0.0008532577776350081,
				0.0006373642245307565,
				0.0026029159780591726
			],
			"min":[
				-0.0007420482579618692,
				-0.0006509684608317912,
				-0.0022400289308279753
			],
			"type":"VEC3"
		},
		{
			"bufferView":7,
			"componentType":5126,
			"count":390,
			"type":"VEC3"
		},
		{
			"bufferView":8,
			"componentType":5123,
			"count":582,
			"type":"SCALAR"
		}
	],
	"bufferViews":[
		{
			"buffer":0,
			"byteLength":2208,
			"byteOffset":0,
			"target":34962
		},
		{
			"buffer":0,
			"byteLength":2208,
			"byteOffset":2208,
			"target":34962
		},
		{
			"buffer":0,
			"byteLength":552,
			"byteOffset":4416,
			"target":34963
		},
		{
			"buffer":0,
			"byteLength":3912,
			"byteOffset":4968,
			"target":34962
		},
		{
			"buffer":0,
			"byteLength":3912,
			"byteOffset":8880,
			"target":34962
		},
		{
			"buffer":0,
			"byteLength":972,
			"byteOffset":12792,
			"target":34963
		},
		{
			"buffer":0,
			"byteLength":4680,
			"byteOffset":13764,
			"target":34962
		},
		{
			"buffer":0,
			"byteLength":4680,
			"byteOffset":18444,
			"target":34962
		},
		{
			"buffer":0,
			"byteLength":1164,
			"byteOffset":23124,
			"target":34963
		}
	],
	"buffers":[
		{
			"byteLength":24288,
			"uri":"torch.bin"
		}
	]
}
