# Blender 5.2.0 LTS
# www.blender.org
mtllib torch.mtl
o WoodenTorch
v 0.019895 0.162463 -0.082439
v 0.051262 0.456069 -0.061851
v 0.083221 0.146106 -0.058152
v -0.022785 0.447653 -0.087470
v -0.057144 -0.186355 -0.060041
v 0.019895 0.162463 -0.082439
v 0.022777 -0.239270 -0.084286
v -0.056457 0.213471 -0.058990
v -0.086528 -0.160099 -0.000000
v -0.056457 0.213471 -0.058990
v -0.057144 -0.186355 -0.060041
v -0.090161 0.240932 -0.000000
v -0.057144 -0.186355 0.060041
v -0.056457 0.213471 0.058990
v -0.086528 -0.160099 -0.000000
v -0.090161 0.240932 -0.000000
v 0.022777 -0.239270 0.084286
v 0.019895 0.162463 0.082439
v -0.057144 -0.186355 0.060041
v -0.056457 0.213471 0.058990
v 0.083221 0.146106 0.058152
v 0.022777 -0.239270 0.084286
v 0.083405 -0.255216 0.059687
v 0.019895 0.162463 0.082439
v 0.111582 0.135615 -0.000000
v 0.083405 -0.255216 0.059687
v 0.116033 -0.266699 -0.000000
v 0.083221 0.146106 0.058152
v 0.083405 -0.255216 -0.059687
v 0.111582 0.135615 -0.000000
v 0.116033 -0.266699 -0.000000
v 0.083221 0.146106 -0.058152
v 0.022777 -0.239270 -0.084286
v 0.083221 0.146106 -0.058152
v 0.083405 -0.255216 -0.059687
v 0.019895 0.162463 -0.082439
v 0.046581 -0.583405 0.066619
v 0.046581 -0.583405 -0.066619
v 0.095271 -0.538436 0.000000
v -0.028512 -0.575735 -0.094213
v -0.124316 -0.480770 0.000000
v -0.028512 -0.575735 0.094213
v -0.103604 -0.528639 0.066619
v -0.103604 -0.528639 -0.066619
v 0.081933 0.459555 -0.000000
v 0.083221 0.146106 0.058152
v 0.111582 0.135615 -0.000000
v 0.051262 0.456069 0.061851
v 0.019895 0.162463 0.082439
v -0.022785 0.447653 0.087470
v -0.056457 0.213471 0.058990
v -0.084012 0.441068 0.061851
v -0.090161 0.240932 -0.000000
v -0.084012 0.441068 -0.061851
v -0.056457 0.213471 -0.058990
v -0.114683 0.437582 -0.000000
v 0.083221 0.146106 -0.058152
v 0.081933 0.459555 -0.000000
v 0.111582 0.135615 -0.000000
v 0.051262 0.456069 -0.061851
v 0.051262 0.456069 0.061851
v 0.019895 0.162463 0.082439
v 0.083221 0.146106 0.058152
v -0.022785 0.447653 0.087470
v -0.056457 0.213471 0.058990
v -0.084012 0.441068 0.061851
v -0.090161 0.240932 -0.000000
v -0.114683 0.437582 -0.000000
v -0.028512 -0.575735 -0.094213
v 0.083405 -0.255216 -0.059687
v 0.046581 -0.583405 -0.066619
v 0.022777 -0.239270 -0.084286
v -0.028512 -0.575735 -0.094213
v -0.028512 -0.575735 0.094213
v -0.103604 -0.528639 -0.066619
v 0.046581 -0.583405 0.066619
v 0.046581 -0.583405 -0.066619
v 0.083405 -0.255216 -0.059687
v 0.095271 -0.538436 0.000000
v 0.116033 -0.266699 -0.000000
v -0.103604 -0.528639 -0.066619
v 0.022777 -0.239270 -0.084286
v -0.028512 -0.575735 -0.094213
v -0.057144 -0.186355 -0.060041
v 0.083405 -0.255216 0.059687
v -0.028512 -0.575735 0.094213
v 0.046581 -0.583405 0.066619
v 0.022777 -0.239270 0.084286
v -0.103604 -0.528639 0.066619
v -0.057144 -0.186355 0.060041
v -0.124316 -0.480770 0.000000
v -0.086528 -0.160099 -0.000000
v 0.095271 -0.538436 0.000000
v 0.083405 -0.255216 0.059687
v 0.046581 -0.583405 0.066619
v 0.116033 -0.266699 -0.000000
v -0.028512 -0.575735 0.094213
v 0.022777 -0.239270 0.084286
v -0.103604 -0.528639 0.066619
v -0.057144 -0.186355 0.060041
v -0.056457 0.213471 -0.058990
v -0.022785 0.447653 -0.087470
v 0.019895 0.162463 -0.082439
v -0.084012 0.441068 -0.061851
v -0.022785 0.447653 -0.087470
v 0.014692 0.985602 -0.067606
v 0.051262 0.456069 -0.061851
v -0.066765 0.985602 -0.095609
v -0.084012 0.441068 -0.061851
v -0.066765 0.985602 -0.095609
v -0.022785 0.447653 -0.087470
v -0.148335 1.002033 -0.067606
v -0.066765 0.985602 0.095609
v -0.084012 0.441068 0.061851
v -0.022785 0.447653 0.087470
v -0.148335 1.002033 0.067606
v 0.014692 0.985602 -0.067606
v 0.081933 0.459555 -0.000000
v 0.051262 0.456069 -0.061851
v 0.048433 0.985602 -0.000000
v -0.114683 0.437582 -0.000000
v -0.148335 1.002033 -0.067606
v -0.084012 0.441068 -0.061851
v -0.181739 1.006787 -0.000000
v 0.014692 0.985602 0.067606
v -0.022785 0.447653 0.087470
v 0.051262 0.456069 0.061851
v -0.066765 0.985602 0.095609
v -0.148335 1.002033 0.067606
v -0.114683 0.437582 -0.000000
v -0.084012 0.441068 0.061851
v -0.181739 1.006787 -0.000000
v -0.124316 -0.480770 0.000000
v -0.057144 -0.186355 -0.060041
v -0.103604 -0.528639 -0.066619
v -0.086528 -0.160099 -0.000000
v 0.081933 0.459555 -0.000000
v 0.014692 0.985602 0.067606
v 0.051262 0.456069 0.061851
v 0.048433 0.985602 -0.000000
v 0.002968 1.908348 -0.120146
v -0.148335 1.002033 -0.067606
v -0.114556 1.908348 -0.084956
v -0.066765 0.985602 -0.095609
v -0.181739 1.006787 -0.000000
v -0.114556 1.908348 -0.084956
v -0.148335 1.002033 -0.067606
v -0.163236 1.908348 -0.000000
v 0.120492 1.908348 -0.084956
v 0.120492 1.908348 0.084955
v 0.169172 1.908348 -0.000000
v 0.002968 1.908348 0.120145
v 0.002968 1.908348 -0.120146
v -0.114556 1.908348 0.084955
v -0.114556 1.908348 -0.084956
v -0.163236 1.908348 -0.000000
v -0.181739 1.006787 -0.000000
v -0.114556 1.908348 0.084955
v -0.163236 1.908348 -0.000000
v -0.148335 1.002033 0.067606
v -0.148335 1.002033 0.067606
v 0.002968 1.908348 0.120145
v -0.114556 1.908348 0.084955
v -0.066765 0.985602 0.095609
v 0.014692 0.985602 0.067606
v 0.002968 1.908348 0.120145
v -0.066765 0.985602 0.095609
v 0.120492 1.908348 0.084955
v 0.014692 0.985602 0.067606
v 0.169172 1.908348 -0.000000
v 0.120492 1.908348 0.084955
v 0.048433 0.985602 -0.000000
v 0.014692 0.985602 -0.067606
v 0.169172 1.908348 -0.000000
v 0.048433 0.985602 -0.000000
v 0.120492 1.908348 -0.084956
v 0.002968 1.908348 -0.120146
v 0.014692 0.985602 -0.067606
v -0.066765 0.985602 -0.095609
v 0.120492 1.908348 -0.084956
v 0.139596 2.066605 -0.136804
v 0.023299 2.072860 -0.032178
v 0.167220 2.107188 -0.020652
v 0.024274 2.046816 -0.180142
v 0.169458 2.081262 0.111802
v 0.023299 2.072860 -0.032178
v 0.024015 2.053743 0.155139
v 0.167220 2.107188 -0.020652
v 0.023299 2.072860 -0.032178
v -0.090086 2.002990 -0.136804
v -0.119395 2.008105 -0.020652
v 0.024274 2.046816 -0.180142
v -0.120208 1.995794 0.111802
v 0.023299 2.072860 -0.032178
v -0.119395 2.008105 -0.020652
v 0.024015 2.053743 0.155139
v -0.119395 2.008105 -0.020652
v -0.090086 2.002990 -0.136804
v -0.167075 1.982938 -0.020652
v -0.120208 1.995794 0.111802
v -0.119395 2.008105 -0.020652
v -0.167075 1.982938 -0.020652
v 0.211223 2.066583 0.007176
v 0.167220 2.107188 -0.020652
v 0.169458 2.081262 0.111802
v 0.139596 2.066605 -0.136804
v 0.167220 2.107188 -0.020652
v 0.211223 2.066583 0.007176
v 0.024015 2.053743 0.155139
v -0.125691 1.977374 0.132453
v 0.019086 2.032856 0.187317
v -0.120208 1.995794 0.111802
v -0.090086 2.002990 -0.136804
v 0.024274 2.046816 -0.180142
v 0.019086 2.032856 -0.187318
v -0.125691 1.977374 -0.132454
v 0.165080 2.057909 0.132453
v 0.024015 2.053743 0.155139
v 0.019086 2.032856 0.187317
v 0.169458 2.081262 0.111802
v 0.169458 2.081262 0.111802
v 0.217955 2.039326 -0.000000
v 0.211223 2.066583 0.007176
v 0.165080 2.057909 0.132453
v -0.125691 1.977374 -0.132454
v -0.184651 1.966745 -0.000000
v -0.167075 1.982938 -0.020652
v -0.090086 2.002990 -0.136804
v 0.139596 2.066605 -0.136804
v 0.019086 2.032856 -0.187318
v 0.024274 2.046816 -0.180142
v 0.165080 2.057909 -0.132454
v 0.165080 2.057909 -0.132454
v 0.211223 2.066583 0.007176
v 0.217955 2.039326 -0.000000
v 0.139596 2.066605 -0.136804
v -0.146265 1.819949 0.139611
v -0.199542 1.780972 -0.000000
v -0.153412 1.728760 0.116214
v -0.208734 1.848838 -0.000000
v 0.126120 1.673416 -0.116215
v -0.042045 1.694925 -0.164352
v 0.005048 1.813620 -0.197440
v 0.152949 1.826227 -0.139611
v 0.126120 1.673416 0.116214
v 0.005048 1.813620 0.197440
v -0.042045 1.694925 0.164351
v 0.152949 1.826227 0.139611
v 0.152949 1.826227 -0.139611
v 0.177481 1.684605 -0.000000
v 0.126120 1.673416 -0.116215
v 0.222324 1.858231 -0.000000
v -0.199542 1.780972 -0.000000
v -0.146265 1.819949 -0.139611
v -0.153412 1.728760 -0.116215
v -0.208734 1.848838 -0.000000
v -0.146265 1.819949 -0.139611
v -0.042045 1.694925 -0.164352
v -0.153412 1.728760 -0.116215
v 0.005048 1.813620 -0.197440
v -0.042045 1.694925 0.164351
v -0.146265 1.819949 0.139611
v -0.153412 1.728760 0.116214
v 0.005048 1.813620 0.197440
v 0.177481 1.684605 -0.000000
v 0.152949 1.826227 0.139611
v 0.126120 1.673416 0.116214
v 0.222324 1.858231 -0.000000
v -0.223330 1.419442 -0.000000
v -0.156986 1.495309 -0.119761
v -0.176494 1.406168 -0.107625
v -0.206420 1.531276 -0.000000
v -0.156986 1.495309 0.119761
v -0.206420 1.531276 -0.000000
v -0.223330 1.419442 -0.000000
v -0.176494 1.406168 0.107624
v 0.096938 1.487819 -0.119761
v 0.137936 1.366117 -0.000000
v 0.089355 1.363001 -0.107625
v 0.154113 1.518800 -0.000000
v -0.022105 1.462248 -0.169368
v 0.089355 1.363001 -0.107625
v -0.031703 1.342943 -0.152204
v 0.096938 1.487819 -0.119761
v -0.176494 1.406168 -0.107625
v -0.022105 1.462248 -0.169368
v -0.031703 1.342943 -0.152204
v -0.156986 1.495309 -0.119761
v 0.137936 1.366117 -0.000000
v 0.096938 1.487819 0.119761
v 0.089355 1.363001 0.107624
v 0.154113 1.518800 -0.000000
v 0.089355 1.363001 0.107624
v -0.022105 1.462248 0.169367
v -0.031703 1.342943 0.152204
v 0.096938 1.487819 0.119761
v -0.022105 1.462248 0.169367
v -0.176494 1.406168 0.107624
v -0.031703 1.342943 0.152204
v -0.156986 1.495309 0.119761
v -0.160737 1.529072 -0.130303
v -0.045248 1.660405 -0.148895
v -0.015451 1.495186 -0.184276
v -0.147079 1.690872 -0.105285
v 0.175576 1.558436 -0.000000
v 0.113194 1.523191 -0.130303
v 0.104350 1.643314 -0.105285
v 0.151101 1.654493 -0.000000
v -0.214373 1.569391 -0.000000
v -0.147079 1.690872 -0.105285
v -0.160737 1.529072 -0.130303
v -0.189195 1.735682 -0.000000
v -0.160737 1.529072 0.130302
v -0.015451 1.495186 0.184275
v -0.045248 1.660405 0.148895
v -0.147079 1.690872 0.105284
v -0.015451 1.495186 -0.184276
v 0.104350 1.643314 -0.105285
v 0.113194 1.523191 -0.130303
v -0.045248 1.660405 -0.148895
v 0.104350 1.643314 0.105284
v -0.045248 1.660405 0.148895
v -0.015451 1.495186 0.184275
v 0.113194 1.523191 0.130302
v 0.175576 1.558436 -0.000000
v 0.104350 1.643314 0.105284
v 0.113194 1.523191 0.130302
v 0.151101 1.654493 -0.000000
v -0.214373 1.569391 -0.000000
v -0.160737 1.529072 0.130302
v -0.147079 1.690872 0.105284
v -0.189195 1.735682 -0.000000
v 0.089355 1.363001 -0.107625
v 0.060234 1.289468 -0.000000
v 0.032309 1.291513 -0.061904
v 0.137936 1.366117 -0.000000
v 0.060234 1.289468 -0.000000
v 0.089355 1.363001 0.107624
v 0.032309 1.291513 0.061904
v 0.137936 1.366117 -0.000000
v -0.031703 1.342943 -0.152204
v -0.102526 1.301391 -0.061904
v -0.176494 1.406168 -0.107625
v -0.035109 1.296452 -0.087546
v -0.223330 1.419442 -0.000000
v -0.102526 1.301391 -0.061904
v -0.130451 1.303436 -0.000000
v -0.176494 1.406168 -0.107625
v -0.031703 1.342943 -0.152204
v 0.089355 1.363001 -0.107625
v 0.032309 1.291513 -0.061904
v -0.035109 1.296452 -0.087546
v -0.102526 1.301391 0.061904
v -0.223330 1.419442 -0.000000
v -0.130451 1.303436 -0.000000
v -0.176494 1.406168 0.107624
v -0.031703 1.342943 0.152204
v -0.102526 1.301391 0.061904
v -0.035109 1.296452 0.087545
v -0.176494 1.406168 0.107624
v -0.102526 1.301391 -0.061904
v -0.102526 1.301391 0.061904
v -0.130451 1.303436 -0.000000
v -0.035109 1.296452 0.087545
v -0.035109 1.296452 -0.087546
v 0.032309 1.291513 -0.061904
v 0.032309 1.291513 0.061904
v 0.060234 1.289468 -0.000000
v 0.222324 1.858231 -0.000000
v 0.159732 1.864637 0.148077
v 0.152949 1.826227 0.139611
v 0.233903 1.900006 -0.000000
v 0.007015 1.848315 0.209413
v -0.154819 1.852394 0.148077
v -0.146265 1.819949 0.139611
v 0.005048 1.813620 0.197440
v -0.146265 1.819949 -0.139611
v 0.007015 1.848315 -0.209413
v 0.005048 1.813620 -0.197440
v -0.154819 1.852394 -0.148078
v -0.208734 1.848838 -0.000000
v -0.154819 1.852394 -0.148078
v -0.146265 1.819949 -0.139611
v -0.221617 1.880438 -0.000000
v 0.159732 1.864637 -0.148078
v 0.222324 1.858231 -0.000000
v 0.152949 1.826227 -0.139611
v 0.233903 1.900006 -0.000000
v 0.152949 1.826227 0.139611
v 0.007015 1.848315 0.209413
v 0.005048 1.813620 0.197440
v 0.159732 1.864637 0.148077
v -0.015451 1.495186 0.184275
v -0.160737 1.529072 0.130302
v -0.156986 1.495309 0.119761
v -0.022105 1.462248 0.169367
v 0.096938 1.487819 0.119761
v -0.015451 1.495186 0.184275
v -0.022105 1.462248 0.169367
v 0.113194 1.523191 0.130302
v 0.007015 1.848315 -0.209413
v 0.152949 1.826227 -0.139611
v 0.005048 1.813620 -0.197440
v 0.159732 1.864637 -0.148078
v -0.153412 1.728760 0.116214
v -0.199542 1.780972 -0.000000
v -0.189195 1.735682 -0.000000
v -0.147079 1.690872 0.105284
v 0.154113 1.518800 -0.000000
v 0.113194 1.523191 0.130302
v 0.096938 1.487819 0.119761
v 0.175576 1.558436 -0.000000
v -0.156986 1.495309 -0.119761
v -0.015451 1.495186 -0.184276
v -0.022105 1.462248 -0.169368
v -0.160737 1.529072 -0.130303
v -0.015451 1.495186 -0.184276
v 0.096938 1.487819 -0.119761
v -0.022105 1.462248 -0.169368
v 0.113194 1.523191 -0.130303
v 0.113194 1.523191 -0.130303
v 0.154113 1.518800 -0.000000
v 0.096938 1.487819 -0.119761
v 0.175576 1.558436 -0.000000
v 0.177481 1.684605 -0.000000
v 0.104350 1.643314 0.105284
v 0.151101 1.654493 -0.000000
v 0.126120 1.673416 0.116214
v -0.160737 1.529072 0.130302
v -0.206420 1.531276 -0.000000
v -0.156986 1.495309 0.119761
v -0.214373 1.569391 -0.000000
v 0.104350 1.643314 0.105284
v -0.042045 1.694925 0.164351
v -0.045248 1.660405 0.148895
v 0.126120 1.673416 0.116214
v 0.032309 1.291513 0.061904
v -0.031703 1.342943 0.152204
v -0.035109 1.296452 0.087545
v 0.089355 1.363001 0.107624
v -0.125691 1.977374 0.132453
v -0.184651 1.966745 -0.000000
v -0.221617 1.880438 -0.000000
v -0.154819 1.852394 0.148077
v 0.165080 2.057909 -0.132454
v 0.233903 1.900006 -0.000000
v 0.159732 1.864637 -0.148078
v 0.217955 2.039326 -0.000000
v -0.221617 1.880438 -0.000000
v -0.125691 1.977374 -0.132454
v -0.154819 1.852394 -0.148078
v -0.184651 1.966745 -0.000000
v 0.019086 2.032856 -0.187318
v 0.159732 1.864637 -0.148078
v 0.007015 1.848315 -0.209413
v 0.165080 2.057909 -0.132454
v -0.042045 1.694925 -0.164352
v 0.104350 1.643314 -0.105285
v -0.045248 1.660405 -0.148895
v 0.126120 1.673416 -0.116215
v -0.042045 1.694925 0.164351
v -0.147079 1.690872 0.105284
v -0.045248 1.660405 0.148895
v -0.153412 1.728760 0.116214
v 0.007015 1.848315 0.209413
v -0.125691 1.977374 0.132453
v -0.154819 1.852394 0.148077
v 0.019086 2.032856 0.187317
v 0.159732 1.864637 0.148077
v 0.019086 2.032856 0.187317
v 0.007015 1.848315 0.209413
v 0.165080 2.057909 0.132453
v -0.189195 1.735682 -0.000000
v -0.153412 1.728760 -0.116215
v -0.147079 1.690872 -0.105285
v -0.199542 1.780972 -0.000000
v -0.206420 1.531276 -0.000000
v -0.160737 1.529072 -0.130303
v -0.156986 1.495309 -0.119761
v -0.214373 1.569391 -0.000000
v -0.154819 1.852394 0.148077
v -0.208734 1.848838 -0.000000
v -0.146265 1.819949 0.139611
v -0.221617 1.880438 -0.000000
v 0.007015 1.848315 -0.209413
v -0.154819 1.852394 -0.148078
v -0.125691 1.977374 -0.132454
v 0.019086 2.032856 -0.187318
v 0.104350 1.643314 -0.105285
v 0.177481 1.684605 -0.000000
v 0.151101 1.654493 -0.000000
v 0.126120 1.673416 -0.116215
v 0.233903 1.900006 -0.000000
v 0.165080 2.057909 0.132453
v 0.159732 1.864637 0.148077
v 0.217955 2.039326 -0.000000
v -0.184651 1.966745 -0.000000
v -0.125691 1.977374 0.132453
v -0.120208 1.995794 0.111802
v -0.167075 1.982938 -0.020652
v -0.147079 1.690872 -0.105285
v -0.042045 1.694925 -0.164352
v -0.045248 1.660405 -0.148895
v -0.153412 1.728760 -0.116215
v -0.093487 0.279675 0.013646
v -0.074978 0.189232 0.007221
v -0.081441 0.290122 0.012126
v -0.086173 0.186782 0.008096
v -0.079934 -0.215257 0.000864
v -0.061235 -0.196454 -0.061896
v -0.052942 -0.234809 -0.054626
v -0.091782 -0.178783 0.000902
v 0.085790 0.050599 -0.059424
v 0.101355 0.019367 -0.000168
v 0.076974 0.038548 -0.052441
v 0.113381 0.033263 -0.000267
v -0.059662 -0.089750 -0.061458
v -0.090384 -0.072555 0.000787
v -0.078699 -0.062384 0.000763
v -0.051552 -0.079592 -0.054239
v 0.083871 0.153769 -0.058894
v 0.101323 0.147942 -0.000543
v 0.113344 0.137606 -0.000691
v 0.075279 0.164118 -0.051974
v -0.052942 -0.234809 -0.054626
v 0.017945 -0.217073 -0.087580
v 0.017024 -0.247743 -0.077322
v -0.061235 -0.196454 -0.061896
v 0.101355 0.019367 -0.000168
v 0.085840 0.015281 0.058179
v 0.077019 -0.000529 0.051476
v 0.113381 0.033263 -0.000267
v -0.086173 0.186782 0.008096
v -0.079464 0.203020 0.000673
v -0.074978 0.189232 0.007221
v -0.091250 0.199243 0.000685
v -0.059662 -0.089750 -0.061458
v 0.017612 -0.101986 -0.077227
v 0.018609 -0.112126 -0.087473
v -0.051552 -0.079592 -0.054239
v 0.086622 0.120108 0.057178
v 0.101323 0.147942 -0.000543
v 0.077710 0.130430 0.050592
v 0.113344 0.137606 -0.000691
v -0.101965 0.313238 0.005755
v -0.093487 0.279675 0.013646
v -0.081441 0.290122 0.012126
v -0.088933 0.323711 0.005153
v 0.017024 -0.247743 -0.077322
v 0.085000 -0.241603 -0.061113
v 0.076277 -0.273238 -0.053935
v 0.017945 -0.217073 -0.087580
v 0.077019 -0.000529 0.051476
v 0.020663 0.002730 0.083662
v 0.019426 -0.014417 0.073994
v 0.085840 0.015281 0.058179
v -0.079464 0.203020 0.000673
v -0.062119 0.243486 -0.059517
v -0.053723 0.251974 -0.052524
v -0.091250 0.199243 0.000685
v 0.018609 -0.112126 -0.087473
v 0.076071 -0.126555 -0.053879
v 0.084767 -0.136676 -0.061050
v 0.017612 -0.101986 -0.077227
v 0.021048 0.107660 0.083523
v 0.086622 0.120108 0.057178
v 0.077710 0.130430 0.050592
v 0.019766 0.117972 0.073871
v -0.072079 0.347168 -0.064329
v -0.101965 0.313238 0.005755
v -0.088933 0.323711 0.005153
v -0.062524 0.357668 -0.056776
v 0.076277 -0.273238 -0.053935
v 0.117246 -0.264803 0.001334
v 0.104771 -0.295594 0.001247
v 0.085000 -0.241603 -0.061113
v 0.019426 -0.014417 0.073994
v -0.058863 -0.012953 0.061380
v -0.050846 -0.031770 0.054305
v 0.020663 0.002730 0.083662
v 0.014098 0.213970 -0.084882
v -0.053723 0.251974 -0.052524
v -0.062119 0.243486 -0.059517
v 0.013625 0.219315 -0.074937
v 0.084767 -0.136676 -0.061050
v 0.103385 -0.151855 0.000646
v 0.115678 -0.161957 0.000654
v 0.076071 -0.126555 -0.053879
v 0.021048 0.107660 0.083523
v -0.050666 0.102277 0.054070
v -0.058659 0.091977 0.061114
v 0.019766 0.117972 0.073871
v 0.001440 0.318594 -0.087428
v -0.072079 0.347168 -0.064329
v -0.062524 0.357668 -0.056776
v 0.002440 0.329072 -0.077187
v 0.104771 -0.295594 0.001247
v 0.082735 -0.280842 0.062273
v 0.074275 -0.307803 0.055095
v 0.117246 -0.264803 0.001334
v -0.050846 -0.031770 0.054305
v -0.087938 -0.030298 -0.000285
v -0.076538 -0.050962 -0.000184
v -0.058863 -0.012953 0.061380
v 0.014098 0.213970 -0.084882
v 0.077319 0.196747 -0.062830
v 0.069489 0.200258 -0.055451
v 0.013625 0.219315 -0.074937
v 0.083184 -0.177041 0.062744
v 0.103385 -0.151855 0.000646
v 0.074672 -0.166952 0.055510
v 0.115678 -0.161957 0.000654
v -0.077595 0.084778 -0.000246
v -0.058659 0.091977 0.061114
v -0.050666 0.102277 0.054070
v -0.089134 0.074491 -0.000355
v 0.067115 0.300713 -0.064409
v 0.001440 0.318594 -0.087428
v 0.002440 0.329072 -0.077187
v 0.060473 0.311176 -0.056846
v 0.082735 -0.280842 0.062273
v 0.022644 -0.229580 0.088355
v 0.017420 -0.271294 0.078472
v 0.074275 -0.307803 0.055095
v -0.076538 -0.050962 -0.000184
v -0.059792 -0.046772 -0.060193
v -0.051666 -0.069190 -0.053121
v -0.087938 -0.030298 -0.000285
v 0.077319 0.196747 -0.062830
v 0.097413 0.182203 -0.000865
v 0.069489 0.200258 -0.055451
v 0.108920 0.180429 -0.001056
v 0.019445 -0.146436 0.088163
v 0.083184 -0.177041 0.062744
v 0.074672 -0.166952 0.055510
v 0.018350 -0.136322 0.077972
v -0.059300 0.058157 -0.060460
v -0.089134 0.074491 -0.000355
v -0.077595 0.084778 -0.000246
v -0.051232 0.068430 -0.053358
v 0.100051 0.284592 0.000426
v 0.067115 0.300713 -0.064409
v 0.060473 0.311176 -0.056846
v 0.089577 0.295043 0.000444
v 0.022644 -0.229580 0.088355
v -0.047077 -0.147398 0.064899
v -0.040431 -0.180530 0.057415
v 0.017420 -0.271294 0.078472
v -0.051666 -0.069190 -0.053121
v 0.020334 -0.068244 -0.084631
v 0.019136 -0.092948 -0.074715
v -0.059792 -0.046772 -0.060193
v 0.081696 0.166444 0.059941
v 0.097413 0.182203 -0.000865
v 0.108920 0.180429 -0.001056
v 0.073357 0.166728 0.053034
v -0.010484 -0.092764 0.054977
v 0.019445 -0.146436 0.088163
v 0.018350 -0.136322 0.077972
v -0.008097 -0.082608 0.048647
v -0.059300 0.058157 -0.060460
v 0.019531 0.046939 -0.074199
v 0.020782 0.036683 -0.084047
v -0.051232 0.068430 -0.053358
v 0.072599 0.270485 0.062178
v 0.089577 0.295043 0.000444
v 0.065318 0.280925 0.055010
v 0.100051 0.284592 0.000426
v 0.019136 -0.092948 -0.074715
v 0.084021 -0.087983 -0.060769
v 0.075411 -0.114788 -0.053630
v 0.020334 -0.068244 -0.084631
v 0.019469 0.151569 0.085610
v 0.073357 0.166728 0.053034
v 0.081696 0.166444 0.059941
v 0.018371 0.150270 0.075716
v 0.020782 0.036683 -0.084047
v 0.075924 0.027264 -0.053024
v 0.084600 0.017022 -0.060083
v 0.019531 0.046939 -0.074199
v 0.009937 0.255784 0.086403
v 0.072599 0.270485 0.062178
v 0.065318 0.280925 0.055010
v 0.009948 0.266212 0.076417
v 0.075411 -0.114788 -0.053630
v 0.115119 -0.105090 0.000273
v 0.102891 -0.133717 0.000309
v 0.084021 -0.087983 -0.060769
v 0.019469 0.151569 0.085610
v -0.051640 0.128139 0.052524
v 0.018371 0.150270 0.075716
v -0.059761 0.131568 0.059364
v 0.084600 0.017022 -0.060083
v 0.101874 0.009923 -0.000066
v 0.113968 -0.000305 -0.000151
v 0.075924 0.027264 -0.053024
v 0.009937 0.255784 0.086403
v -0.050926 0.248696 0.054611
v -0.058954 0.238281 0.061726
v 0.009948 0.266212 0.076417
v 0.102891 -0.133717 0.000309
v 0.086225 -0.115868 0.059294
v 0.077360 -0.145643 0.052462
v 0.115119 -0.105090 0.000273
v -0.059761 0.131568 0.059364
v -0.092264 0.110844 0.002883
v -0.080360 0.105208 0.002615
v -0.051640 0.128139 0.052524
v 0.085421 -0.010772 0.059501
v 0.101874 0.009923 -0.000066
v 0.076649 -0.000553 0.052645
v 0.113968 -0.000305 -0.000151
v -0.083815 0.224046 0.004244
v -0.058954 0.238281 0.061726
v -0.050926 0.248696 0.054611
v -0.096173 0.213650 0.004726
v 0.077360 -0.145643 0.052462
v 0.018993 -0.147946 0.089450
v 0.017950 -0.181136 0.079109
v 0.086225 -0.115868 0.059294
v -0.080360 0.105208 0.002615
v -0.057416 0.091827 -0.059301
v -0.049568 0.084166 -0.052333
v -0.092264 0.110844 0.002883
v 0.085421 -0.010772 0.059501
v 0.019974 -0.032013 0.073843
v 0.021283 -0.042208 0.083490
v 0.076649 -0.000553 0.052645
v -0.056925 0.196756 -0.059568
v -0.096173 0.213650 0.004726
v -0.083815 0.224046 0.004244
v -0.049133 0.207138 -0.052569
v 0.017950 -0.181136 0.079109
v -0.060587 -0.161299 0.063648
v -0.052370 -0.195911 0.056309
v 0.018993 -0.147946 0.089450
v 0.017603 0.062128 -0.084364
v -0.049568 0.084166 -0.052333
v -0.057416 0.091827 -0.059301
v 0.016722 0.051305 -0.074480
v 0.021283 -0.042208 0.083490
v -0.051105 -0.045882 0.054794
v -0.059157 -0.056067 0.061933
v 0.019974 -0.032013 0.073843
v -0.056925 0.196756 -0.059568
v 0.016470 0.176427 -0.073678
v 0.017318 0.166069 -0.083457
v -0.049133 0.207138 -0.052569
v -0.052370 -0.195911 0.056309
v -0.091782 -0.178783 0.000902
v -0.079934 -0.215257 0.000864
v -0.060587 -0.161299 0.063648
v 0.017603 0.062128 -0.084364
v 0.076974 0.038548 -0.052441
v 0.016722 0.051305 -0.074480
v 0.085790 0.050599 -0.059424
v -0.078699 -0.062384 0.000763
v -0.059157 -0.056067 0.061933
v -0.051105 -0.045882 0.054794
v -0.090384 -0.072555 0.000787
v 0.017318 0.166069 -0.083457
v 0.075279 0.164118 -0.051974
v 0.083871 0.153769 -0.058894
v 0.016470 0.176427 -0.073678
v -0.062119 0.243486 -0.059517
v 0.001440 0.318594 -0.087428
v 0.014098 0.213970 -0.084882
v -0.072079 0.347168 -0.064329
v -0.057416 0.091827 -0.059301
v 0.017318 0.166069 -0.083457
v 0.017603 0.062128 -0.084364
v -0.056925 0.196756 -0.059568
v 0.017945 -0.217073 -0.087580
v 0.084767 -0.136676 -0.061050
v 0.085000 -0.241603 -0.061113
v 0.018609 -0.112126 -0.087473
v -0.086173 0.186782 0.008096
v -0.093487 0.279675 0.013646
v -0.091250 0.199243 0.000685
v -0.101965 0.313238 0.005755
v -0.101965 0.313238 0.005755
v -0.062119 0.243486 -0.059517
v -0.091250 0.199243 0.000685
v -0.072079 0.347168 -0.064329
v 0.014098 0.213970 -0.084882
v 0.067115 0.300713 -0.064409
v 0.077319 0.196747 -0.062830
v 0.001440 0.318594 -0.087428
v 0.077319 0.196747 -0.062830
v 0.100051 0.284592 0.000426
v 0.108920 0.180429 -0.001056
v 0.067115 0.300713 -0.064409
v 0.108920 0.180429 -0.001056
v 0.072599 0.270485 0.062178
v 0.081696 0.166444 0.059941
v 0.100051 0.284592 0.000426
v 0.081696 0.166444 0.059941
v 0.009937 0.255784 0.086403
v 0.019469 0.151569 0.085610
v 0.072599 0.270485 0.062178
v 0.019469 0.151569 0.085610
v -0.058954 0.238281 0.061726
v -0.059761 0.131568 0.059364
v 0.009937 0.255784 0.086403
v -0.059761 0.131568 0.059364
v -0.096173 0.213650 0.004726
v -0.092264 0.110844 0.002883
v -0.058954 0.238281 0.061726
v -0.092264 0.110844 0.002883
v -0.056925 0.196756 -0.059568
v -0.057416 0.091827 -0.059301
v -0.096173 0.213650 0.004726
v 0.017603 0.062128 -0.084364
v 0.083871 0.153769 -0.058894
v 0.085790 0.050599 -0.059424
v 0.017318 0.166069 -0.083457
v 0.085790 0.050599 -0.059424
v 0.113344 0.137606 -0.000691
v 0.113381 0.033263 -0.000267
v 0.083871 0.153769 -0.058894
v 0.113381 0.033263 -0.000267
v 0.086622 0.120108 0.057178
v 0.085840 0.015281 0.058179
v 0.113344 0.137606 -0.000691
v 0.085840 0.015281 0.058179
v 0.021048 0.107660 0.083523
v 0.020663 0.002730 0.083662
v 0.086622 0.120108 0.057178
v 0.020663 0.002730 0.083662
v -0.058659 0.091977 0.061114
v -0.058863 -0.012953 0.061380
v 0.021048 0.107660 0.083523
v -0.058863 -0.012953 0.061380
v -0.089134 0.074491 -0.000355
v -0.087938 -0.030298 -0.000285
v -0.058659 0.091977 0.061114
v -0.087938 -0.030298 -0.000285
v -0.059300 0.058157 -0.060460
v -0.059792 -0.046772 -0.060193
v -0.089134 0.074491 -0.000355
v -0.059792 -0.046772 -0.060193
v 0.020782 0.036683 -0.084047
v 0.020334 -0.068244 -0.084631
v -0.059300 0.058157 -0.060460
v 0.020334 -0.068244 -0.084631
v 0.084600 0.017022 -0.060083
v 0.084021 -0.087983 -0.060769
v 0.020782 0.036683 -0.084047
v 0.084021 -0.087983 -0.060769
v 0.113968 -0.000305 -0.000151
v 0.115119 -0.105090 0.000273
v 0.084600 0.017022 -0.060083
v 0.115119 -0.105090 0.000273
v 0.085421 -0.010772 0.059501
v 0.086225 -0.115868 0.059294
v 0.113968 -0.000305 -0.000151
v 0.018993 -0.147946 0.089450
v -0.059157 -0.056067 0.061933
v -0.060587 -0.161299 0.063648
v 0.021283 -0.042208 0.083490
v -0.060587 -0.161299 0.063648
v -0.090384 -0.072555 0.000787
v -0.091782 -0.178783 0.000902
v -0.059157 -0.056067 0.061933
v -0.091782 -0.178783 0.000902
v -0.059662 -0.089750 -0.061458
v -0.061235 -0.196454 -0.061896
v -0.090384 -0.072555 0.000787
v -0.061235 -0.196454 -0.061896
v 0.018609 -0.112126 -0.087473
v 0.017945 -0.217073 -0.087580
v -0.059662 -0.089750 -0.061458
v 0.086225 -0.115868 0.059294
v 0.021283 -0.042208 0.083490
v 0.018993 -0.147946 0.089450
v 0.085421 -0.010772 0.059501
v 0.085000 -0.241603 -0.061113
v 0.115678 -0.161957 0.000654
v 0.117246 -0.264803 0.001334
v 0.084767 -0.136676 -0.061050
v 0.117246 -0.264803 0.001334
v 0.083184 -0.177041 0.062744
v 0.082735 -0.280842 0.062273
v 0.115678 -0.161957 0.000654
v 0.083184 -0.177041 0.062744
v 0.022644 -0.229580 0.088355
v 0.082735 -0.280842 0.062273
v 0.019445 -0.146436 0.088163
v -0.047077 -0.147398 0.064899
v 0.019445 -0.146436 0.088163
v -0.010484 -0.092764 0.054977
v 0.022644 -0.229580 0.088355
vn 0.3428 0.0292 -0.9389
vn 0.3428 0.0292 -0.9390
vn -0.2902 0.0026 -0.9570
vn -0.2903 0.0027 -0.9569
vn -0.2904 0.0027 -0.9569
vn -0.8841 -0.0026 -0.4674
vn -0.8840 -0.0026 -0.4674
vn -0.8841 -0.0026 0.4674
vn -0.2903 0.0027 0.9569
vn -0.2902 0.0026 0.9570
vn 0.3681 0.0053 0.9298
vn 0.8885 0.0059 0.4588
vn 0.8885 0.0060 0.4588
vn 0.8886 0.0060 0.4587
vn 0.8885 0.0060 -0.4588
vn 0.8886 0.0060 -0.4587
vn 0.3681 0.0053 -0.9298
vn 0.2886 -0.9575 -0.0000
vn 0.2885 -0.9575 -0.0000
vn -0.7040 -0.7102 -0.0000
vn 0.8960 0.0845 0.4358
vn 0.8960 0.0845 0.4359
vn -0.3532 -0.0627 0.9334
vn -0.3532 -0.0627 0.9335
vn -0.8861 -0.1118 -0.4499
vn -0.8861 -0.1118 -0.4498
vn 0.8960 0.0845 -0.4359
vn 0.8960 0.0845 -0.4358
vn 0.3428 0.0292 0.9389
vn 0.3428 0.0292 0.9390
vn -0.8861 -0.1118 0.4498
vn -0.8861 -0.1118 0.4499
vn 0.3553 -0.0234 -0.9345
vn -0.3426 -0.9395 -0.0000
vn -0.3425 -0.9395 -0.0000
vn 0.8474 -0.0753 -0.5256
vn -0.2794 0.0635 -0.9581
vn 0.3553 -0.0234 0.9345
vn -0.8978 0.1183 0.4243
vn 0.8474 -0.0753 0.5256
vn -0.2794 0.0635 0.9581
vn -0.3532 -0.0627 -0.9335
vn -0.3532 -0.0627 -0.9334
vn 0.3253 0.0123 -0.9455
vn 0.3254 0.0122 -0.9455
vn -0.3540 -0.0467 -0.9341
vn -0.3540 -0.0467 0.9341
vn 0.8932 0.0568 -0.4461
vn -0.8916 -0.1059 -0.4403
vn -0.8916 -0.1059 -0.4402
vn 0.3251 0.0123 0.9456
vn 0.3253 0.0123 0.9455
vn 0.3256 0.0122 0.9454
vn -0.8916 -0.1059 0.4403
vn -0.8916 -0.1059 0.4402
vn -0.8978 0.1183 -0.4243
vn 0.8932 0.0568 0.4461
vn 0.8933 0.0569 0.4458
vn -0.3029 -0.0047 -0.9530
vn -0.8802 0.0209 -0.4742
vn -0.0000 1.0000 -0.0000
vn -0.8802 0.0209 0.4742
vn -0.3029 -0.0049 0.9530
vn -0.3029 -0.0047 0.9530
vn 0.3023 -0.0504 0.9519
vn 0.8743 -0.1118 0.4723
vn 0.8743 -0.1118 -0.4723
vn 0.3023 -0.0504 -0.9519
vn -0.1526 0.9618 -0.2272
vn -0.1527 0.9618 -0.2272
vn -0.1924 0.9715 0.1386
vn -0.4119 0.8982 -0.1535
vn -0.4121 0.8982 -0.1532
vn -0.4000 0.9121 0.0895
vn -0.4612 0.8737 -0.1548
vn -0.4653 0.8816 0.0791
vn 0.6221 0.7703 0.1403
vn 0.7455 0.5538 -0.3708
vn -0.4564 0.7546 0.4715
vn -0.4709 0.5355 -0.7011
vn -0.4709 0.5354 -0.7011
vn 0.0819 0.7569 0.6483
vn 0.0819 0.7570 0.6483
vn 0.9265 0.1365 0.3507
vn -0.6714 0.6851 -0.2826
vn -0.6715 0.6850 -0.2826
vn -0.6714 0.6850 -0.2826
vn 0.2743 0.3571 -0.8929
vn 0.7055 0.6537 -0.2738
vn 0.7055 0.6537 -0.2737
vn -0.9259 -0.0666 0.3719
vn 0.2990 -0.2717 -0.9147
vn 0.2990 -0.2717 0.9147
vn 0.8954 -0.2241 -0.3847
vn 0.8954 -0.2242 -0.3848
vn 0.8954 -0.2242 -0.3847
vn -0.9259 -0.0666 -0.3719
vn -0.3891 -0.1443 -0.9098
vn -0.3891 -0.1443 0.9098
vn 0.8954 -0.2241 0.3847
vn 0.8954 -0.2242 0.3847
vn -0.9009 0.1385 -0.4113
vn -0.9009 0.1383 -0.4114
vn -0.9009 0.1384 -0.4114
vn -0.9009 0.1383 0.4114
vn -0.9009 0.1384 0.4114
vn -0.9009 0.1382 0.4115
vn 0.9080 -0.0956 -0.4080
vn 0.9080 -0.0955 -0.4079
vn 0.9079 -0.0957 -0.4081
vn 0.3842 -0.1366 -0.9131
vn 0.3841 -0.1366 -0.9131
vn -0.3437 -0.0835 -0.9353
vn 0.9080 -0.0955 0.4079
vn 0.9080 -0.0956 0.4080
vn 0.9080 -0.0956 0.4079
vn 0.3842 -0.1366 0.9131
vn 0.3841 -0.1366 0.9131
vn -0.3437 -0.0835 0.9353
vn -0.3274 0.1560 -0.9319
vn 0.8769 0.1864 -0.4430
vn -0.8992 0.1383 -0.4151
vn -0.8991 0.1380 -0.4155
vn -0.8991 0.1381 -0.4153
vn -0.3274 0.1560 0.9319
vn 0.3132 0.2371 -0.9196
vn 0.3133 0.2370 -0.9196
vn 0.3133 0.2370 0.9196
vn 0.3132 0.2371 0.9196
vn 0.8769 0.1864 0.4430
vn 0.8769 0.1864 0.4429
vn -0.8991 0.1381 0.4153
vn -0.8991 0.1381 0.4154
vn 0.6602 -0.6913 -0.2937
vn 0.6603 -0.6912 -0.2936
vn 0.6603 -0.6912 0.2936
vn 0.6602 -0.6913 0.2936
vn -0.4186 -0.6546 -0.6295
vn -0.7402 -0.6155 -0.2708
vn -0.7402 -0.6154 -0.2708
vn 0.2896 -0.7288 -0.6204
vn 0.2896 -0.7289 -0.6204
vn -0.7402 -0.6155 0.2708
vn -0.7402 -0.6154 0.2708
vn -0.4186 -0.6546 0.6295
vn -0.0731 -0.9973 -0.0000
vn 0.8893 -0.2444 0.3865
vn 0.8893 -0.2445 0.3865
vn -0.3476 -0.3041 0.8869
vn -0.3476 -0.3041 -0.8869
vn -0.8815 -0.3386 -0.3291
vn -0.8815 -0.3385 -0.3291
vn 0.8893 -0.2444 -0.3865
vn 0.8893 -0.2445 -0.3865
vn 0.3766 -0.2910 0.8795
vn -0.3942 -0.3126 0.8642
vn -0.3942 -0.3127 0.8642
vn 0.4258 -0.4378 0.7918
vn 0.3766 -0.2910 -0.8795
vn -0.9352 -0.2236 0.2746
vn 0.8414 -0.4624 0.2798
vn -0.3942 -0.3126 -0.8642
vn -0.3942 -0.3125 -0.8642
vn 0.4258 -0.4378 -0.7918
vn 0.8414 -0.4624 -0.2798
vn 0.8413 -0.4624 -0.2798
vn 0.7306 -0.6314 0.2599
vn -0.9261 -0.1979 0.3213
vn -0.9261 -0.1980 0.3213
vn 0.2004 -0.4358 0.8775
vn 0.2004 -0.4357 0.8775
vn 0.2896 -0.7289 0.6204
vn 0.2896 -0.7288 0.6204
vn -0.8634 0.3001 0.4057
vn 0.9088 0.0484 -0.4145
vn 0.9088 0.0485 -0.4144
vn -0.8634 0.3001 -0.4057
vn 0.3522 0.0769 -0.9328
vn 0.2004 -0.4357 -0.8775
vn 0.2004 -0.4358 -0.8775
vn -0.4545 -0.3223 0.8304
vn -0.4545 -0.3222 0.8304
vn -0.3730 0.1614 0.9137
vn -0.3733 0.1610 0.9136
vn -0.3732 0.1610 0.9137
vn 0.3522 0.0769 0.9328
vn -0.9352 -0.2236 -0.2746
vn -0.9261 -0.1979 -0.3213
vn -0.9261 -0.1980 -0.3213
vn -0.8815 -0.3385 0.3291
vn -0.3730 0.1614 -0.9137
vn -0.3733 0.1610 -0.9136
vn -0.3732 0.1610 -0.9137
vn 0.7306 -0.6314 -0.2599
vn 0.9088 0.0484 0.4145
vn 0.9088 0.0485 0.4144
vn -0.6799 0.7028 0.2093
vn -0.6800 0.7027 0.2093
vn -0.4545 -0.3223 -0.8304
vn 0.1268 -0.0444 0.9909
vn 0.1267 -0.0441 0.9910
vn -0.8958 -0.2749 -0.3493
vn 0.6101 -0.6235 -0.4889
vn -0.5425 0.6951 -0.4717
vn -0.5424 0.6952 -0.4717
vn 0.6795 0.7219 -0.1311
vn 0.6794 0.7219 -0.1311
vn -0.3510 -0.2655 -0.8979
vn 0.7889 -0.5910 0.1684
vn 0.7889 -0.5911 0.1684
vn 0.0856 -0.4433 -0.8923
vn 0.0857 -0.4433 -0.8923
vn -0.0481 0.6611 -0.7488
vn -0.0481 0.6611 -0.7487
vn 0.5408 0.6955 0.4731
vn -0.0815 0.1969 0.9770
vn 0.2468 -0.2964 -0.9226
vn 0.4065 -0.5029 0.7627
vn 0.4065 -0.5029 0.7628
vn 0.5714 -0.7478 -0.3381
vn 0.5713 -0.7478 -0.3381
vn 0.4860 0.6917 -0.5342
vn 0.1625 0.6585 0.7348
vn 0.1624 0.6585 0.7348
vn -0.6908 0.7191 0.0752
vn -0.6909 0.7191 0.0752
vn 0.7826 -0.3260 -0.5304
vn -0.1508 -0.4404 0.8850
vn -0.1508 -0.4405 0.8850
vn -0.1041 -0.7459 0.6578
vn -0.1041 -0.7459 0.6579
vn 0.6883 0.7248 -0.0294
vn -0.3281 0.6568 0.6790
vn -0.3281 0.6568 0.6789
vn 0.0229 0.6400 -0.7680
vn 0.0229 0.6400 -0.7681
vn 0.8478 -0.3567 0.3924
vn -0.7432 -0.4526 0.4928
vn -0.3673 -0.8877 0.2778
vn -0.3673 -0.8877 0.2777
vn -0.3673 -0.8876 0.2778
vn 0.5301 0.7116 0.4611
vn 0.5302 0.7117 0.4608
vn -0.6964 0.7054 0.1322
vn -0.6965 0.7053 0.1322
vn -0.6964 0.7053 0.1322
vn 0.4117 0.6521 -0.6366
vn 0.4117 0.6521 -0.6365
vn 0.1938 -0.2727 0.9424
vn 0.1939 -0.2727 0.9424
vn 0.1938 -0.2728 0.9424
vn -0.8593 -0.4344 -0.2701
vn -0.3060 -0.9441 -0.1224
vn -0.3059 -0.9442 -0.1224
vn 0.5432 0.6814 0.4906
vn 0.5432 0.6814 0.4905
vn -0.5495 0.6895 -0.4718
vn 0.7239 0.6624 -0.1928
vn -0.5517 -0.1985 0.8101
vn -0.5517 -0.1984 0.8101
vn -0.3696 -0.3627 -0.8555
vn -0.0142 -0.9670 -0.2543
vn 0.2965 0.5919 0.7495
vn 0.2966 0.5919 0.7494
vn 0.2966 0.5920 0.7494
vn -0.0414 0.6442 -0.7637
vn -0.0414 0.6443 -0.7637
vn 0.6088 0.6653 0.4321
vn 0.2224 -0.3444 -0.9121
vn 0.2224 -0.3443 -0.9121
vn 0.2303 -0.9706 -0.0706
vn 0.2303 -0.9706 -0.0707
vn 0.4414 0.6884 -0.5755
vn 0.4414 0.6885 -0.5755
vn 0.1245 0.6556 0.7448
vn 0.1246 0.6556 0.7448
vn 0.7810 -0.3597 -0.5106
vn 0.7810 -0.3596 -0.5106
vn 0.1544 -0.9319 0.3281
vn 0.1543 -0.9319 0.3282
vn 0.1544 -0.9319 0.3282
vn 0.6784 0.7265 -0.1093
vn -0.4041 0.6683 0.6246
vn 0.8665 -0.3540 0.3519
vn 0.8665 -0.3539 0.3519
vn -0.2174 -0.8527 0.4750
vn 0.5692 0.7152 0.4057
vn 0.5692 0.7152 0.4055
vn -0.6870 0.7167 0.1196
vn -0.6870 0.7167 0.1197
vn 0.5190 -0.3000 0.8004
vn 0.5191 -0.3000 0.8004
vn -0.5524 -0.8332 -0.0246
vn -0.5525 -0.8332 -0.0247
vn -0.5525 -0.8331 -0.0247
vn -0.5524 -0.8332 -0.0247
vn -0.0292 0.6196 0.7844
vn -0.0292 0.6197 0.7843
vn -0.0292 0.6196 0.7843
vn -0.5306 0.6753 -0.5124
vn -0.5306 0.6752 -0.5124
vn -0.2510 -0.2690 0.9299
vn -0.2510 -0.2690 0.9298
vn -0.4849 -0.6820 -0.5475
vn -0.4848 -0.6820 -0.5475
vn -0.4849 -0.6820 -0.5476
vn -0.3046 0.6636 0.6833
vn -0.3045 0.6636 0.6833
vn 0.0227 0.6242 -0.7810
vn -0.8207 -0.2832 0.4962
vn -0.8207 -0.2831 0.4963
vn 0.1595 -0.6288 -0.7610
vn 0.1594 -0.6288 -0.7610
vn 0.1589 -0.6286 -0.7614
vn -0.6844 0.7146 0.1449
vn -0.6844 0.7145 0.1449
vn -0.6844 0.7146 0.1448
vn 0.3677 0.6796 -0.6348
vn -0.3314 -0.0692 -0.9409
vn -0.3314 -0.0693 -0.9410
vn -0.3314 -0.0692 -0.9410
vn -0.3105 0.0033 -0.9506
vn -0.3104 0.0032 -0.9506
vn -0.3105 0.0032 -0.9506
vn 0.3690 -0.0000 -0.9294
vn -0.8753 -0.1006 0.4729
vn -0.8753 -0.1006 0.4730
vn -0.8879 -0.0838 -0.4524
vn -0.8878 -0.0838 -0.4525
vn 0.3346 0.0179 -0.9422
vn 0.3343 0.0181 -0.9423
vn 0.3345 0.0180 -0.9422
vn 0.8962 0.0821 -0.4360
vn 0.8964 0.0818 -0.4357
vn 0.8963 0.0819 -0.4359
vn 0.8962 0.0820 -0.4359
vn 0.9050 0.0705 0.4195
vn 0.9052 0.0708 0.4192
vn 0.9051 0.0706 0.4194
vn 0.9051 0.0706 0.4193
vn 0.3670 0.0193 0.9300
vn -0.3188 -0.0273 0.9474
vn -0.3188 -0.0274 0.9474
vn -0.8477 -0.0232 0.5300
vn -0.8476 -0.0232 0.5300
vn -0.8476 -0.0232 0.5301
vn -0.8641 -0.0104 -0.5032
vn -0.8641 -0.0104 -0.5033
vn 0.3464 0.0102 -0.9380
vn 0.3465 0.0102 -0.9380
vn 0.9003 0.0087 -0.4353
vn 0.9003 0.0087 -0.4352
vn 0.9063 -0.0004 0.4227
vn 0.9063 -0.0003 0.4227
vn 0.3680 0.0030 0.9298
vn -0.2706 0.0027 0.9627
vn -0.2708 0.0026 0.9626
vn -0.2707 0.0026 0.9626
vn -0.2707 0.0026 0.9627
vn -0.8998 -0.0036 0.4362
vn -0.8998 -0.0035 0.4362
vn -0.8999 -0.0036 0.4362
vn -0.9008 -0.0037 -0.4342
vn -0.2866 0.0028 -0.9581
vn -0.2864 0.0027 -0.9581
vn -0.2865 0.0027 -0.9581
vn 0.3522 0.0040 -0.9359
vn 0.3521 0.0041 -0.9360
vn 0.8948 0.0030 -0.4464
vn 0.8994 0.0088 0.4369
vn 0.8995 0.0088 0.4369
vn -0.2898 0.0399 0.9563
vn -0.8947 0.0158 0.4464
vn -0.8965 0.0132 -0.4429
vn -0.3106 0.0058 -0.9505
vn -0.3105 0.0057 -0.9506
vn -0.3105 0.0057 -0.9505
vn -0.3106 0.0057 -0.9505
vn 0.3716 0.0227 0.9281
vn 0.3715 0.0227 0.9281
vn 0.8923 0.0064 -0.4514
vn 0.8776 0.0052 0.4793
vn 0.3864 0.0043 0.9223
vn 0.3865 0.0043 0.9223
vn -0.3284 0.1481 0.9329
vn -0.3284 0.1480 0.9329
s 1
usemtl DarkWood
f 1//1 2//1 3//2
f 2//1 1//1 4//2
f 5//3 6//4 7//4
f 6//4 5//3 8//5
f 9//6 10//6 11//6
f 10//6 9//6 12//7
f 13//8 14//8 15//8
f 16//8 15//8 14//8
f 17//9 18//9 19//10
f 20//9 19//10 18//9
f 21//11 22//11 23//11
f 24//11 22//11 21//11
f 25//12 26//13 27//13
f 28//14 26//13 25//12
f 29//15 30//15 31//15
f 30//15 29//15 32//16
f 33//17 34//17 35//17
f 34//17 33//17 36//17
f 37//18 38//19 39//18
f 37//18 40//19 38//19
f 41//20 42//20 43//20
f 42//20 41//20 44//20
f 45//21 46//22 47//21
f 46//22 45//21 48//22
f 49//23 50//23 51//24
f 51//24 50//23 52//23
f 53//25 54//25 55//26
f 54//25 53//25 56//25
f 57//27 58//28 59//27
f 58//28 57//27 60//27
f 61//29 62//29 63//30
f 62//29 61//29 64//30
f 65//31 66//32 67//31
f 67//31 66//32 68//32
f 69//33 70//33 71//33
f 70//33 69//33 72//33
f 73//34 74//34 75//34
f 74//34 73//34 76//35
f 77//36 78//36 79//36
f 79//36 78//36 80//36
f 81//37 82//37 83//37
f 82//37 81//37 84//37
f 85//38 86//38 87//38
f 88//38 86//38 85//38
f 89//39 90//39 91//39
f 92//39 91//39 90//39
f 93//40 94//40 95//40
f 94//40 93//40 96//40
f 97//41 98//41 99//41
f 100//41 99//41 98//41
f 101//42 102//43 103//43
f 102//43 101//42 104//43
f 105//44 106//44 107//44
s 0
f 106//45 105//45 108//45
s 1
f 109//46 110//46 111//46
f 110//46 109//46 112//46
f 113//47 114//47 115//47
f 116//47 114//47 113//47
s 0
f 117//48 118//48 119//48
f 118//48 117//48 120//48
s 1
f 121//49 122//49 123//50
f 122//49 121//49 124//49
f 125//51 126//52 127//52
f 128//53 126//52 125//51
f 129//54 130//54 131//55
f 132//54 130//54 129//54
f 133//56 134//56 135//56
f 134//56 133//56 136//56
s 0
f 137//57 138//57 139//57
f 138//58 137//58 140//58
s 1
f 141//59 142//59 143//59
f 142//59 141//59 144//59
f 145//60 146//60 147//60
f 146//60 145//60 148//60
s 0
f 149//61 150//61 151//61
f 149//61 152//61 150//61
f 152//61 149//61 153//61
f 153//61 154//61 152//61
f 154//61 155//61 156//61
f 154//61 153//61 155//61
s 1
f 157//62 158//62 159//62
f 158//62 157//62 160//62
f 161//63 162//64 163//64
f 162//64 161//63 164//64
f 165//65 166//65 167//65
f 166//65 165//65 168//65
f 169//66 170//66 171//66
f 170//66 169//66 172//66
f 173//67 174//67 175//67
f 174//67 173//67 176//67
f 177//68 178//68 179//68
f 178//68 177//68 180//68
usemtl LightGrey
f 181//69 182//69 183//70
f 182//69 181//69 184//70
f 185//71 186//71 187//71
f 186//71 185//71 188//71
f 189//72 190//73 191//73
f 190//73 189//72 192//73
f 193//74 194//74 195//74
f 194//74 193//74 196//74
s 0
f 197//75 198//75 199//75
f 200//76 201//76 202//76
f 203//77 204//77 205//77
f 206//78 207//78 208//78
s 1
f 209//79 210//79 211//79
f 210//79 209//79 212//79
s 0
f 213//80 214//80 215//80
f 215//81 216//81 213//81
s 1
f 217//82 218//83 219//83
f 218//83 217//82 220//82
s 0
f 221//84 222//84 223//84
f 222//84 221//84 224//84
s 1
f 225//85 226//86 227//87
f 227//87 228//85 225//85
s 0
f 229//88 230//88 231//88
s 1
f 230//88 229//88 232//88
f 233//89 234//90 235//89
f 234//90 233//89 236//89
f 237//91 238//91 239//91
f 237//91 240//91 238//91
f 241//92 242//92 243//92
f 243//92 244//92 241//92
f 245//93 246//93 247//93
f 246//93 245//93 248//93
f 249//94 250//95 251//96
f 249//94 252//96 250//95
f 253//97 254//97 255//97
f 254//97 253//97 256//97
f 257//98 258//98 259//98
f 257//98 260//98 258//98
f 261//99 262//99 263//99
f 262//99 261//99 264//99
f 265//100 266//100 267//101
f 266//100 265//100 268//101
f 269//102 270//103 271//104
f 270//103 269//102 272//104
f 273//105 274//106 275//107
f 273//105 275//107 276//106
f 277//108 278//109 279//108
f 277//108 280//110 278//109
f 281//111 282//111 283//112
f 281//111 284//111 282//111
f 285//113 286//113 287//113
f 286//113 285//113 288//113
f 289//114 290//115 291//115
f 290//115 289//114 292//116
f 293//117 294//117 295//118
f 294//117 293//117 296//117
f 297//119 298//119 299//119
f 298//119 297//119 300//119
f 301//120 302//120 303//120
f 302//120 301//120 304//120
f 305//121 306//121 307//121
f 307//121 308//121 305//121
f 309//122 310//123 311//124
f 310//123 309//122 312//124
f 313//125 314//125 315//125
f 315//125 316//125 313//125
f 317//126 318//127 319//126
f 318//127 317//126 320//126
f 321//128 322//129 323//129
f 321//128 323//129 324//129
f 325//130 326//130 327//130
f 326//130 325//130 328//131
f 329//132 330//133 331//133
f 331//133 332//132 329//132
f 333//134 334//135 335//135
f 334//135 333//134 336//135
f 337//136 338//137 339//136
f 338//137 337//136 340//136
f 341//138 342//138 343//138
f 342//138 341//138 344//138
f 345//139 346//139 347//140
f 346//139 345//139 348//140
f 349//141 350//141 351//142
f 351//142 352//142 349//141
f 353//143 354//143 355//144
f 354//143 353//143 356//144
f 357//145 358//145 359//145
f 358//145 357//145 360//145
s 0
f 361//146 362//146 363//146
f 362//146 361//146 364//146
f 365//146 364//146 361//146
f 364//146 365//146 366//146
f 364//146 366//146 367//146
f 367//146 366//146 368//146
s 1
f 369//147 370//148 371//147
f 370//148 369//147 372//147
f 373//149 374//149 375//149
f 373//149 375//149 376//149
f 377//150 378//150 379//150
f 378//150 377//150 380//150
f 381//151 382//152 383//152
f 382//152 381//151 384//152
f 385//153 386//154 387//154
f 385//153 388//154 386//154
f 389//155 390//155 391//155
f 390//155 389//155 392//155
f 393//156 394//156 395//156
f 393//156 395//156 396//157
f 397//158 398//158 399//158
f 398//158 397//158 400//158
f 401//159 402//159 403//159
f 401//159 404//159 402//159
f 405//160 406//160 407//160
f 405//160 407//160 408//160
f 409//161 410//161 411//161
f 410//161 409//161 412//161
f 413//162 414//162 415//163
f 414//162 413//162 416//162
f 417//164 418//164 419//164
f 417//164 420//164 418//164
f 421//165 422//165 423//166
f 421//165 424//165 422//165
f 425//167 426//167 427//167
f 425//167 428//167 426//167
f 429//168 430//169 431//168
f 429//168 432//168 430//169
f 433//170 434//171 435//171
f 434//171 433//170 436//171
f 437//172 438//172 439//172
f 438//172 437//172 440//173
f 441//174 442//174 443//174
f 441//174 443//174 444//174
f 445//175 446//175 447//175
f 445//175 448//176 446//175
f 449//177 450//177 451//177
f 450//177 449//177 452//177
f 453//178 454//178 455//178
f 453//178 456//178 454//178
f 457//179 458//180 459//179
f 457//179 460//179 458//180
f 461//181 462//181 463//181
f 461//181 464//182 462//181
f 465//183 466//184 467//185
f 466//184 465//183 468//184
f 469//186 470//186 471//186
f 470//186 469//186 472//186
f 473//187 474//187 475//187
f 474//187 473//187 476//187
f 477//188 478//189 479//188
f 478//189 477//188 480//188
f 481//190 482//190 483//190
f 481//190 484//190 482//190
f 485//191 486//192 487//193
f 487//193 488//192 485//191
f 489//194 490//194 491//194
f 490//194 489//194 492//194
f 493//195 494//195 495//195
f 494//195 493//195 496//196
f 497//197 498//198 499//198
f 499//198 500//197 497//197
f 501//199 502//199 503//199
f 502//199 501//199 504//199
usemtl Yellow
f 505//200 506//200 507//200
f 506//200 505//200 508//201
f 509//202 510//202 511//202
f 510//202 509//202 512//202
f 513//203 514//203 515//203
f 514//203 513//203 516//203
f 517//204 518//204 519//204
f 519//204 520//205 517//204
f 521//206 522//207 523//207
f 522//207 521//206 524//206
f 525//208 526//208 527//208
f 526//208 525//208 528//208
f 529//209 530//209 531//209
f 530//209 529//209 532//210
f 533//211 534//212 535//211
f 534//212 533//211 536//212
f 537//213 538//213 539//214
f 538//213 537//213 540//213
f 541//215 542//215 543//215
f 542//215 541//215 544//215
f 545//216 546//216 547//216
f 545//216 547//216 548//216
f 549//217 550//217 551//217
f 550//217 549//217 552//217
f 553//218 554//219 555//219
f 554//219 553//218 556//219
f 557//220 558//220 559//220
f 558//220 557//220 560//221
f 561//222 562//222 563//222
f 562//222 561//222 564//222
f 565//223 566//223 567//224
f 567//224 568//224 565//223
f 569//225 570//225 571//225
f 571//225 572//226 569//225
f 573//227 574//227 575//227
f 574//227 573//227 576//227
f 577//228 578//228 579//228
f 578//228 577//228 580//229
f 581//230 582//230 583//231
f 582//230 581//230 584//230
f 585//232 586//232 587//232
f 586//232 585//232 588//232
f 589//233 590//233 591//234
f 590//233 589//233 592//233
f 593//235 594//236 595//236
f 595//236 596//235 593//235
f 597//237 598//237 599//237
f 598//237 597//237 600//237
f 601//238 602//238 603//238
f 602//238 601//238 604//238
f 605//239 606//240 607//240
f 607//240 608//241 605//239
f 609//242 610//242 611//242
f 610//242 609//242 612//243
f 613//244 614//245 615//245
f 614//245 613//244 616//246
f 617//247 618//247 619//247
f 619//247 620//248 617//247
f 621//249 622//250 623//250
f 623//250 624//251 621//249
f 625//252 626//252 627//252
f 626//252 625//252 628//252
f 629//253 630//254 631//253
f 630//254 629//253 632//254
f 633//255 634//256 635//255
f 635//255 636//255 633//255
f 637//257 638//257 639//257
f 639//257 640//257 637//257
f 641//258 642//258 643//258
f 643//258 644//258 641//258
f 645//259 646//259 647//259
f 647//259 648//260 645//259
f 649//261 650//261 651//261
f 650//261 649//261 652//261
f 653//262 654//262 655//262
f 654//262 653//262 656//262
f 657//263 658//264 659//265
f 657//263 659//265 660//263
f 661//266 662//267 663//267
f 662//267 661//266 664//266
f 665//268 666//268 667//268
f 666//268 665//268 668//268
f 669//269 670//270 671//269
f 670//270 669//269 672//270
f 673//271 674//272 675//272
f 674//272 673//271 676//272
f 677//273 678//274 679//274
f 678//274 677//273 680//273
f 681//275 682//276 683//275
f 683//275 684//275 681//275
f 685//277 686//278 687//277
f 686//278 685//277 688//277
f 689//279 690//280 691//279
f 690//280 689//279 692//281
f 693//282 694//282 695//282
f 694//282 693//282 696//282
f 697//283 698//283 699//283
f 698//283 697//283 700//283
f 701//284 702//285 703//285
f 702//285 701//284 704//285
f 705//286 706//286 707//286
f 707//286 708//286 705//286
f 709//287 710//287 711//287
f 710//287 709//287 712//288
f 713//289 714//290 715//290
f 714//290 713//289 716//289
f 717//291 718//291 719//292
f 718//291 717//291 720//291
f 721//293 722//294 723//295
f 722//294 721//293 724//296
f 725//297 726//298 727//299
f 726//298 725//297 728//299
f 729//300 730//301 731//301
f 731//301 732//300 729//300
f 733//302 734//303 735//302
f 734//303 733//302 736//302
f 737//304 738//304 739//305
f 738//304 737//304 740//306
f 741//307 742//307 743//308
f 742//307 741//307 744//307
f 745//309 746//309 747//309
f 746//309 745//309 748//309
f 749//310 750//310 751//311
f 750//310 749//310 752//310
f 753//312 754//312 755//313
f 754//312 753//312 756//314
f 757//315 758//316 759//315
f 758//316 757//315 760//317
f 761//318 762//318 763//318
f 762//318 761//318 764//318
f 765//319 766//320 767//321
f 766//320 765//319 768//321
f 769//322 770//323 771//324
f 770//323 769//322 772//324
f 773//325 774//325 775//325
f 774//325 773//325 776//325
f 777//326 778//327 779//327
f 780//326 779//327 778//327
f 781//328 782//329 783//329
f 781//328 784//328 782//329
f 785//330 786//330 787//331
f 786//330 785//330 788//332
f 789//333 790//334 791//335
f 790//334 789//333 792//336
f 793//337 794//338 795//339
f 794//338 793//337 796//340
f 797//341 798//341 799//341
f 798//341 797//341 800//341
f 801//342 802//342 803//342
f 802//342 801//342 804//343
f 805//344 806//345 807//346
f 806//345 805//344 808//346
f 809//347 810//348 811//348
f 810//348 809//347 812//347
f 813//349 814//349 815//350
f 814//349 813//349 816//350
f 817//351 818//352 819//352
f 818//352 817//351 820//352
f 821//353 822//354 823//354
f 822//354 821//353 824//354
f 825//355 826//355 827//355
f 826//355 825//355 828//355
f 829//356 830//357 831//358
f 830//357 829//356 832//359
f 833//360 834//361 835//362
f 834//361 833//360 836//360
f 837//363 838//363 839//363
f 838//363 837//363 840//363
f 841//364 842//365 843//366
f 842//365 841//364 844//366
s 0
f 845//367 846//367 847//367
s 1
f 846//368 845//368 848//368
f 849//369 850//369 851//369
f 850//369 849//369 852//369
f 853//370 854//371 855//371
f 854//371 853//370 856//371
f 857//372 858//372 859//372
f 858//372 857//372 860//372
f 861//373 862//373 863//373
f 862//373 861//373 864//373
f 865//374 866//374 867//374
f 866//374 865//374 868//374
f 869//375 870//376 871//377
f 870//376 869//375 872//378
f 873//379 874//380 875//379
f 874//380 873//379 876//379
f 877//381 878//381 879//381
f 878//381 877//381 880//381
f 881//382 882//382 883//382
f 882//382 881//382 884//382
f 885//383 886//384 887//383
f 885//383 888//383 886//384
f 889//385 890//385 891//385
f 890//385 889//385 892//386
